PathFileType   4   (X/Y/Z)
DataRate	CameraRate	NumFrames	NumMarkers	Units	OrigDataRate	OrigDataStartFrame	OrigNumFrames
120.0	120.0	12	37	mm	120.0	1	156
Frame#	Time	midhip	hip_r	hip_l	knee_r	knee_l	ankle_r	ankle_l	midasis	asis_r	asis_l	psis_r	psis_l	epicondLat_r	epicondLat_l	epicondMed_r	epicondMed_l	malleolusLat_r	malleolusLat_l	malleolusMedv_r	malleolusMedv_l	neck	subclavicle_r	subclavicle_l	sternalnotch	xyphoidprocess	thighwand_r	thighwand_l	upperleg1_r	upperleg1_l	upperleg2_r	upperleg2_l	shankwand_r	shankwand_l	lowerleg1_r	lowerleg1_l	toe_r	toe_l
 	 	X1	Y1	Z1	X2	Y2	Z2	X3	Y3	Z3	X4	Y4	Z4	X5	Y5	Z5	X6	Y6	Z6	X7	Y7	Z7	X8	Y8	Z8	X9	Y9	Z9	X10	Y10	Z10	X11	Y11	Z11	X12	Y12	Z12	X13	Y13	Z13	X14	Y14	Z14	X15	Y15	Z15	X16	Y16	Z16	X17	Y17	Z17	X18	Y18	Z18	X19	Y19	Z19	X20	Y20	Z20	X21	Y21	Z21	X22	Y22	Z22	X23	Y23	Z23	X24	Y24	Z24	X25	Y25	Z25	X26	Y26	Z26	X27	Y27	Z27	X28	Y28	Z28	X29	Y29	Z29	X30	Y30	Z30	X31	Y31	Z31	X32	Y32	Z32	X33	Y33	Z33	X34	Y34	Z34	X35	Y35	Z35	X36	Y36	Z36	X37	Y37	Z37

	1	0.21667	-2229.076	896.008	203.857	-2230.901	883.162	252.079	-2221.177	889.766	146.159	-2275.795	467.222	280.837	-2148.183	484.041	133.398	-2565.269	162.989	293.251	-2124.295	67.901	153.696	-2146.842	982.006	212.346	-2156.234	975.628	314.653	-2137.450	988.385	110.039	-2350.928	1008.900	239.453	-2346.474	1014.113	154.723	-2273.127	471.035	340.155	-2138.053	487.704	74.881	-2260.140	469.955	222.283	-2167.373	480.947	179.026	-2571.441	170.361	330.014	-2127.558	65.796	114.388	-2559.797	172.271	261.303	-2119.618	78.054	182.735	-2292.669	1463.766	183.387	-2194.034	1409.705	262.137	-2194.215	1400.218	119.036	-2206.521	1404.907	186.635	-2150.935	1207.710	192.878	-2238.599	572.813	418.767	-2024.227	632.062	139.726	-2205.199	629.042	349.125	-2102.436	680.026	90.542	-2209.140	546.519	330.637	-2099.997	592.462	94.010	-2512.606	227.870	396.383	-2027.803	189.752	151.493	-2480.402	274.966	332.572	-2096.825	232.884	138.277	-2516.153	54.378	271.650	-1995.581	42.180	148.978
	2	0.22500	-2222.800	896.617	203.279	-2224.515	883.654	251.269	-2215.028	890.202	145.324	-2264.989	467.230	280.725	-2145.228	484.238	132.737	-2557.319	165.875	294.459	-2124.235	67.898	153.659	-2140.444	982.392	211.301	-2149.610	976.065	313.661	-2131.278	988.720	108.940	-2344.714	1009.401	238.873	-2340.169	1014.811	154.425	-2262.303	471.164	340.034	-2135.391	487.746	74.161	-2250.190	469.710	222.309	-2164.557	481.268	178.343	-2563.052	173.116	331.320	-2127.486	65.759	114.351	-2551.996	175.685	262.645	-2119.554	78.102	182.737	-2286.317	1464.331	182.103	-2187.433	1410.285	260.505	-2188.041	1400.559	117.515	-2200.146	1405.369	185.095	-2144.691	1208.141	191.515	-2228.796	573.232	418.473	-2020.254	631.124	138.176	-2196.060	629.482	348.599	-2098.313	679.685	89.371	-2199.427	546.941	330.326	-2096.642	592.129	92.886	-2502.873	229.807	397.375	-2027.057	189.133	151.333	-2470.946	277.244	333.452	-2095.775	232.688	137.913	-2509.275	57.144	271.745	-1995.557	42.080	148.988
	3	0.23333	-2216.622	897.160	202.582	-2218.228	884.112	250.496	-2208.989	890.607	144.526	-2254.194	467.261	280.496	-2142.304	484.426	132.122	-2548.962	168.427	295.544	-2124.200	67.894	153.599	-2134.171	982.764	210.285	-2143.102	976.485	312.725	-2125.239	989.043	107.845	-2338.533	1009.846	238.443	-2334.041	1015.439	154.107	-2251.414	471.289	339.795	-2132.750	487.785	73.490	-2239.983	469.482	222.114	-2162.313	481.773	177.902	-2554.259	175.513	332.499	-2127.413	65.728	114.290	-2543.789	178.709	263.838	-2119.449	78.147	182.667	-2280.018	1464.918	180.857	-2180.866	1410.812	258.929	-2182.003	1400.849	116.044	-2193.858	1405.790	183.617	-2138.674	1208.490	190.174	-2218.825	573.622	418.096	-2016.360	630.160	136.702	-2186.795	629.925	347.965	-2094.248	679.301	88.306	-2189.521	547.311	329.834	-2093.617	591.716	91.897	-2492.820	231.414	398.250	-2026.351	188.541	151.242	-2461.303	279.290	334.241	-2095.223	232.500	137.725	-2501.112	60.063	271.816	-1995.534	41.985	148.992
	4	0.24167	-2210.550	897.628	201.737	-2212.041	884.567	249.772	-2203.055	890.999	143.777	-2243.466	467.334	280.167	-2139.438	484.607	131.549	-2540.140	170.558	296.495	-2124.187	67.897	153.527	-2128.027	983.151	209.302	-2136.720	976.929	311.844	-2119.334	989.373	106.761	-2332.360	1010.251	238.168	-2328.092	1016.002	153.762	-2240.505	471.430	339.452	-2130.128	487.830	72.871	-2229.984	469.565	221.612	-2161.310	482.722	177.672	-2545.026	177.480	333.538	-2127.349	65.708	114.215	-2535.271	181.279	264.824	-2119.345	78.190	182.552	-2273.787	1465.496	179.631	-2174.275	1411.269	257.375	-2176.003	1401.215	114.562	-2187.577	1406.213	182.149	-2132.591	1208.855	188.616	-2208.708	573.997	417.641	-2012.552	629.203	135.379	-2177.392	630.418	347.200	-2090.319	678.921	87.344	-2179.588	547.772	329.083	-2091.278	591.265	91.020	-2482.467	232.675	399.004	-2025.677	187.978	151.190	-2451.507	280.892	334.987	-2095.165	232.339	137.786	-2491.664	63.005	271.882	-1995.520	41.910	148.988
	5	0.25000	-2204.569	898.077	200.826	-2205.964	885.045	249.106	-2197.231	891.397	143.085	-2232.843	467.467	279.746	-2136.662	484.779	131.028	-2530.794	172.200	297.321	-2124.197	67.917	153.451	-2122.018	983.573	208.363	-2130.474	977.423	311.023	-2113.562	989.724	105.703	-2326.226	1010.648	238.005	-2322.300	1016.529	153.419	-2229.615	471.608	339.013	-2127.544	487.878	72.313	-2219.894	469.552	221.167	-2158.990	483.094	177.080	-2535.308	178.964	334.441	-2127.312	65.709	114.136	-2526.405	183.316	265.659	-2119.304	78.239	182.454	-2267.590	1466.054	178.438	-2167.766	1411.760	255.934	-2170.007	1401.616	113.131	-2181.338	1406.666	180.757	-2126.478	1209.270	187.156	-2198.486	574.374	417.112	-2008.838	628.276	134.248	-2168.028	631.004	346.237	-2086.438	678.639	86.536	-2169.580	548.384	328.250	-2088.264	590.959	90.169	-2471.814	233.580	399.637	-2025.026	187.438	151.135	-2441.536	282.037	335.624	-2094.700	232.190	137.760	-2481.004	65.860	271.994	-1995.528	41.869	148.978
	6	0.25833	-2198.670	898.560	199.967	-2199.997	885.557	248.499	-2191.514	891.809	142.451	-2222.335	467.662	279.237	-2133.993	484.929	130.567	-2520.904	173.333	298.031	-2124.228	67.952	153.377	-2116.138	984.038	207.466	-2124.359	977.979	310.250	-2107.916	990.098	104.681	-2320.189	1011.064	237.881	-2316.636	1017.031	153.091	-2218.775	471.830	338.484	-2125.010	487.915	71.825	-2209.750	469.608	220.694	-2154.803	482.810	176.432	-2525.090	179.954	335.215	-2127.313	65.729	114.060	-2517.021	184.820	266.407	-2119.301	78.281	182.371	-2261.431	1466.605	177.313	-2161.355	1412.315	254.589	-2164.130	1402.012	111.766	-2175.208	1407.147	179.448	-2120.486	1209.715	185.863	-2188.213	574.763	416.501	-2005.223	627.388	133.325	-2158.683	631.674	345.253	-2082.511	678.405	85.931	-2159.548	549.082	327.385	-2084.261	590.852	89.506	-2460.863	234.134	400.149	-2024.397	186.919	151.059	-2431.280	282.931	336.128	-2093.844	232.052	137.578	-2469.264	68.536	272.220	-1995.555	41.863	148.966
	7	0.26667	-2192.864	899.101	199.291	-2194.139	886.103	247.935	-2185.897	892.233	141.862	-2211.943	467.923	278.644	-2131.430	485.052	130.161	-2510.486	173.980	298.633	-2124.275	67.995	153.316	-2110.378	984.541	206.599	-2118.372	978.594	309.493	-2102.383	990.488	103.705	-2314.315	1011.527	237.719	-2311.069	1017.505	152.776	-2208.004	472.104	337.866	-2122.526	487.932	71.402	-2199.708	469.880	220.082	-2151.399	482.792	175.961	-2514.388	180.474	335.870	-2127.347	65.760	113.999	-2506.955	185.718	267.070	-2119.327	78.340	182.314	-2255.332	1467.150	176.259	-2155.059	1412.883	253.244	-2158.325	1402.408	110.495	-2169.170	1407.635	178.182	-2114.590	1210.165	184.658	-2177.940	575.177	415.802	-2001.695	626.534	132.602	-2149.428	632.392	344.342	-2078.645	678.172	85.478	-2149.595	549.848	326.468	-2080.654	590.725	88.997	-2449.629	234.361	400.547	-2023.793	186.422	150.963	-2420.722	283.587	336.536	-2093.014	231.877	137.345	-2456.596	70.945	272.622	-1995.600	41.885	148.957
	8	0.27500	-2187.275	899.574	198.874	-2188.388	886.678	247.404	-2180.369	892.662	141.305	-2201.656	468.255	277.981	-2128.970	485.147	129.806	-2499.568	174.169	299.133	-2124.327	68.037	153.280	-2104.725	985.069	205.755	-2112.508	979.261	308.734	-2096.943	990.877	102.776	-2308.636	1012.045	237.467	-2305.567	1017.946	152.484	-2197.310	472.443	337.174	-2120.089	487.926	71.038	-2189.678	470.225	219.462	-2148.875	482.926	175.317	-2503.227	180.557	336.413	-2127.403	65.790	113.964	-2496.303	186.022	267.679	-2119.357	78.424	182.274	-2249.272	1467.664	175.227	-2148.937	1413.593	252.054	-2152.523	1402.831	109.189	-2163.216	1408.196	176.962	-2108.642	1210.733	183.700	-2167.710	575.621	415.026	-1998.260	625.703	132.069	-2140.232	633.151	343.456	-2074.953	677.994	85.069	-2139.693	550.691	325.570	-2077.518	590.519	88.457	-2438.126	234.295	400.842	-2023.205	185.939	150.853	-2409.852	283.945	336.835	-2092.118	231.673	137.135	-2443.141	72.995	273.240	-1995.662	41.920	148.951
	9	0.28333	-2181.880	899.956	198.696	-2182.730	887.275	246.897	-2174.927	893.085	140.772	-2191.428	468.656	277.277	-2126.600	485.217	129.498	-2488.140	173.890	299.542	-2124.373	68.062	153.270	-2099.168	985.610	204.916	-2106.744	979.969	307.955	-2091.591	991.250	101.877	-2303.115	1012.602	237.141	-2300.095	1018.358	152.225	-2186.685	472.851	336.439	-2117.689	487.897	70.730	-2179.709	470.658	218.712	-2146.252	483.052	174.840	-2491.607	180.198	336.854	-2127.465	65.805	113.956	-2485.234	185.826	268.182	-2119.372	78.477	182.246	-2243.277	1468.137	174.172	-2142.867	1414.307	250.980	-2146.839	1403.261	107.914	-2157.349	1408.760	175.820	-2102.749	1211.312	182.783	-2157.568	576.105	414.209	-1994.939	624.882	131.709	-2131.051	633.979	342.531	-2071.345	677.797	84.726	-2129.850	551.496	324.575	-2074.345	590.352	88.059	-2426.348	233.951	401.046	-2022.614	185.458	150.745	-2398.689	283.954	337.044	-2091.225	231.573	136.953	-2428.998	74.622	274.106	-1995.740	41.952	148.951
	10	0.29167	-2176.562	900.309	198.652	-2177.152	887.880	246.417	-2169.582	893.488	140.264	-2181.224	469.127	276.540	-2124.302	485.262	129.232	-2476.171	173.112	299.870	-2124.403	68.059	153.284	-2093.698	986.148	204.064	-2101.048	980.703	307.136	-2086.348	991.593	100.993	-2297.674	1013.168	236.793	-2294.645	1018.740	151.994	-2176.117	473.331	335.671	-2115.321	487.846	70.471	-2169.781	471.057	217.894	-2143.859	483.344	174.675	-2479.502	179.374	337.202	-2127.513	65.793	113.971	-2473.671	185.028	268.522	-2119.392	78.472	182.252	-2237.338	1468.585	173.178	-2136.739	1414.776	249.748	-2141.232	1403.648	106.834	-2151.495	1409.195	174.710	-2097.006	1211.713	181.605	-2147.545	576.635	413.380	-1991.729	624.061	131.493	-2122.047	634.844	341.487	-2067.672	677.512	84.464	-2120.104	552.345	323.478	-2071.219	590.157	87.860	-2414.284	233.333	401.166	-2022.010	184.961	150.663	-2387.265	283.542	337.130	-2090.394	231.527	136.802	-2414.224	75.792	275.235	-1995.827	41.969	148.958
	11	0.30000	-2171.286	900.626	198.600	-2171.624	888.490	245.982	-2164.315	893.862	139.799	-2171.032	469.672	275.761	-2122.043	485.285	129.007	-2463.656	171.840	300.120	-2124.412	68.031	153.317	-2088.296	986.681	203.207	-2095.392	981.466	306.283	-2081.200	991.895	100.131	-2292.249	1013.721	236.471	-2289.243	1019.090	151.758	-2165.602	473.882	334.862	-2112.972	487.775	70.255	-2160.068	471.614	217.078	-2141.568	483.533	174.362	-2466.916	178.096	337.459	-2127.534	65.758	114.006	-2461.485	183.576	268.760	-2119.391	78.439	182.289	-2231.442	1469.018	172.278	-2130.655	1415.210	248.500	-2135.590	1403.983	105.827	-2145.643	1409.584	173.621	-2091.257	1212.075	180.511	-2137.640	577.215	412.550	-1988.601	623.234	131.373	-2113.095	635.750	340.465	-2063.989	677.201	84.220	-2110.501	553.326	322.407	-2068.085	589.833	87.652	-2401.951	232.459	401.198	-2021.395	184.440	150.622	-2375.554	282.782	337.066	-2089.550	231.408	136.697	-2398.860	76.499	276.620	-1995.896	41.960	148.977
	12	0.30833	-2165.981	900.973	198.460	-2166.142	889.100	245.590	-2159.098	894.206	139.375	-2160.866	470.296	274.946	-2119.797	485.291	128.820	-2450.616	170.092	300.284	-2124.409	67.993	153.365	-2082.948	987.205	202.360	-2089.782	982.251	305.411	-2076.113	992.159	99.309	-2286.808	1014.251	236.204	-2283.909	1019.414	151.506	-2155.150	474.508	334.021	-2110.630	487.689	70.080	-2150.482	472.393	216.189	-2139.096	483.584	174.102	-2453.871	176.385	337.618	-2127.533	65.716	114.054	-2448.641	181.530	268.887	-2119.367	78.395	182.334	-2225.623	1469.433	171.381	-2124.725	1415.734	247.499	-2130.029	1404.283	104.870	-2139.906	1409.997	172.674	-2085.607	1212.469	179.741	-2127.849	577.849	411.739	-1985.523	622.405	131.306	-2104.172	636.709	339.611	-2060.436	676.845	84.039	-2101.005	554.308	321.387	-2064.942	589.512	87.499	-2389.378	231.347	401.142	-2020.777	183.901	150.628	-2363.546	281.760	336.873	-2088.630	231.241	136.654	-2382.928	76.758	278.241	-1995.926	41.921	149.011
